<svg id="_x33_0" enable-background="new 0 0 64 64" height="512" viewBox="0 0 64 64" width="512" xmlns="http://www.w3.org/2000/svg"><g><path d="m30 51h2v2h-2z"/><path d="m35 11h2v-2h2v4h-4v8h6v-4h-2v2h-2v-4h4v-8h-6z"/><path d="m49 7h-3.721l-2.279 6.838v3.162h4v4h2v-4h2v-2h-2zm-2 8h-2v-.838l1.721-5.162h.279z"/><path d="m55 7h-2v14h2v-6h2v5.911h2v-7.911h-4z"/><path d="m60 3h-24.911c-1.892-1.305-4.099-2-6.413-2h-3.352c-5.634 0-10.307 4.141-11.169 9.536-.257.255-.547.468-.885.608-1.061.44-2.27.201-3.081-.611l-1.088-1.089-5.657 5.657 1.094 1.094c.809.808 1.048 2.013.609 3.069-.438 1.055-1.459 1.736-2.6 1.736h-1.547v8h1.547c1.142 0 2.162.681 2.6 1.735.438 1.057.199 2.262-.609 3.07l-1.094 1.094.556.557v.544c0 14.888 12.112 27 27 27s27-12.112 27-27h2.724l-5.724-10.016-5.724 10.016h2.724c0 6.67-3.136 12.611-8 16.461v-8.653c0-5.057-3.426-9.445-8.332-10.671l-3.812-.953-.466-2.328c1.876-1.048 3.355-2.753 4.096-4.855h3.514v1.586c0 1.33 1.083 2.413 2.414 2.413.637 0 1.259-.258 1.707-.707l3.293-3.293h13.586c1.654 0 3-1.346 3-3v-16c0-1.654-1.346-3-3-3zm-35.447 5.105-.634.317c-1.183.591-1.918 1.781-1.919 3.105 0 .285.045.561.111.831l-.091.018c-1.529.306-2.77 1.305-3.451 2.624h-.379c.442-4.564 4.219-8 8.811-8 1.397 0 2.763.348 4 .976v5.024h-5.529c-.394 0-.763-.153-1.04-.431-.28-.278-.432-.649-.432-1.042.001-.561.313-1.065.813-1.315l.634-.317zm10.932 27.061c.173.05.346.1.515.159v3.808l-3.029.433zm-2.802 8.435-2.995 1.712 2.027-3.548.046-.007zm-14.683 8.835v-7.436h-2v5.655c-1.636-1.669-2.989-3.616-4-5.761v-1.087c0-3.078 1.553-5.851 4-7.484v4.543l4.152.593-1.469 2.939 7.317 4.182v7.791c-2.949-.731-5.667-2.089-8-3.935zm-7.711-13.052c.264-.248.574-.427.906-.553-.277.546-.508 1.116-.692 1.706-.083-.38-.151-.766-.214-1.153zm7.77-16.384h-.059c-1.103 0-2-.897-2-2v-2c0-1.103.897-2 2-2h.025c-.006.094-.025.184-.025.279v4.721c0 .338.022.671.059 1zm-2.059 1.444v4.556c0 1.932 1.376 3.548 3.2 3.919l-.303.076c-4.363-.056-7.897-3.618-7.897-7.995 0-2.468 1.157-4.762 3.026-6.256-.006.086-.026.168-.026.256v2c0 1.474.81 2.75 2 3.444zm6.239 17.314.046.007 2.027 3.548-2.995-1.712zm4.761 4.226-1.579-2.763 1.579-3.683 1.579 3.684zm-2.822-4.938-.856-1.498 1.808-.723zm-6.178-1.913v-3.808c.168-.059.341-.11.515-.159l2.514 4.4zm11.822 1.913-.952-2.221 1.808.723zm-7.502-3.251-1.797-3.145.766-.192c.486.34 1.075.542 1.711.542h.586l1.635 1.635zm2.68-4.795h-2c-.552 0-1-.449-1-1s.448-1 1-1h2c.552 0 1 .449 1 1s-.448 1-1 1zm-4.816-2h-.184c-1.103 0-2-.897-2-2v-4h.525c.617 1.736 1.748 3.226 3.214 4.287-.724.338-1.284.955-1.555 1.713zm5.14-28h3.352c1.203 0 2.371.23 3.462.667-.634.507-1.053 1.26-1.116 2.117-1.274-.508-2.637-.784-4.022-.784-5.507 0-10.048 4.034-10.752 9.447-.162-.694-.248-1.405-.248-2.122 0-5.142 4.183-9.325 9.324-9.325zm-22.324 24.021v-4.042c1.766-.165 3.303-1.285 3.994-2.948.691-1.667.397-3.549-.737-4.916l2.859-2.858c1.368 1.132 3.248 1.425 4.911.738.058.991.239 1.967.554 2.91l.037.111c-3.394 1.661-5.618 5.155-5.618 8.984 0 4.255 2.676 7.888 6.429 9.33-1.059.621-1.996 1.409-2.782 2.327-1.267-.125-2.552.264-3.535 1.085l-2.856-2.856c1.135-1.367 1.429-3.25.737-4.917-.69-1.663-2.227-2.783-3.993-2.948zm51 8.979v-2h-1.276l2.276-3.984 2.276 3.984h-1.276v2c0 13.785-11.215 25-25 25-13.279 0-24.169-10.408-24.951-23.495l2.283 2.283c1.835 10.993 11.458 19.212 22.668 19.212 12.683 0 23-10.318 23-23zm-12 7.808v10.047c-1.253.775-2.591 1.42-4 1.92v-10.775h-2v11.373c-1.606.395-3.274.627-5 .627-1.018 0-2.016-.095-3-.239v-8.181l7.317-4.181-1.469-2.939 4.152-.593v-4.543c2.447 1.632 4 4.406 4 7.484zm-8.523-9.158-1.797 3.145-2.901-1.16 2.527-2.527zm-3.562-1.979-2.915 2.915-.826-.826c1.072-.458 1.826-1.522 1.826-2.76 0-.366-.075-.713-.196-1.037.585-.052 1.153-.165 1.704-.325zm-2.915-3.671c-3.859 0-7-3.14-7-7v-4.721c0-1.425 1.015-2.662 2.412-2.942l.832-.166c.625.528 1.399.829 2.227.829h5.529v6h-8v2c0 2.206 1.794 4 4 4s4-1.794 4-4v-1c0 1.433 1.011 2.63 2.356 2.926-1.124 2.448-3.582 4.074-6.356 4.074zm2-6c0 1.103-.897 2-2 2s-2-.897-2-2zm32-1c0 .551-.448 1-1 1h-14.414l-3.88 3.879c-.236.238-.706.045-.706-.293v-3.586h-7c-.552 0-1-.449-1-1v-16c0-.551.448-1 1-1h26c.552 0 1 .449 1 1z"/><path d="m10 17c.256 0 .512-.098.707-.293.391-.391.391-1.024 0-1.414-.195-.195-.451-.293-.707-.293s-.512.098-.707.293c-.391.391-.391 1.024 0 1.414.195.195.451.293.707.293z"/><circle cx="6" cy="25" r="1"/><path d="m10 35c.256 0 .512-.098.707-.293.391-.391.391-1.024 0-1.414-.195-.195-.451-.293-.707-.293s-.512.098-.707.293c-.391.391-.391 1.024 0 1.414.195.195.451.293.707.293z"/></g></svg>