<svg clip-rule="evenodd" fill-rule="evenodd" stroke-linejoin="round" stroke-miterlimit="2" viewBox="0 0 510 510" xmlns="http://www.w3.org/2000/svg"><g id="Artboard41"><path d="m374.407 448.596c4.753 1.318 7.619 2.113 7.617 2.112 9.14 2.469 14.361 11.785 11.907 20.933-.004.017-.009.033-.013.049l-5.197 18.898c-2.457 8.934-12.041 14.331-20.976 11.874l-.017-.005s-98.385-27.283-98.369-27.279c-8.965-2.465-14.389-11.842-11.742-21.028l5.183-18.845c2.466-8.969 11.889-14.341 20.858-11.875l.016.005 5.905 1.637 12.769-48.045c4.153-15.643 10.615-29.282 25.007-36.623 13.361-6.854 37.084-16.329 56.948-30.153.317-.22.65-.418.996-.591 12.309-6.155 27.108-2.456 34.118 9.341.036.061.072.123.106.185.212.379.415.758.608 1.139.391-1.045.733-2.128 1.024-3.253.004-.014.008-.028.011-.043l18.07-68.145c6.774-25.763 18.904-35.399 29.165-37.431 9.133-1.808 17.945 1.873 23.937 8.186 6.059 6.384 8.986 15.315 7.126 23.217-.002.009-.004.017-.005.025 0 0-30.115 126.244-30.115 126.244-3.243 13.923-11.369 24.5-23.749 31.675l-.017.01-69.039 39.791zm-15.48-4.292 2.951-11.065c.55-2.064 1.9-3.823 3.75-4.889l71.918-41.45c8.394-4.867 13.965-11.995 16.159-21.441.004-.015.007-.03.011-.046 0 0 29.705-124.528 30.117-126.256.68-2.937-.896-6.088-3.147-8.461-7.027-7.404-18.849-4.614-25.918 22.284l-.004.017s-18.067 68.135-18.067 68.135c-2.974 11.445-9.286 20.104-18.899 27.031l-.015.011-6.26 4.488c-.079.057-.159.112-.241.166l-.008.006c-11.723 7.774-23.678 13.887-36.477 21.184-3.851 2.195-8.76.851-10.955-3s-.851-8.759 3-10.955c12.376-7.056 23.957-12.952 35.296-20.445 4.481-3.578 5.813-8.107 3.411-12.509-2.614-4.279-8.038-5.347-12.615-3.296-20.414 14.083-44.568 23.865-58.252 30.885l-.019.01c-10.168 5.182-13.856 15.392-16.79 26.441l-12.814 48.216zm18.841 21.893-98.372-27.279-.011-.003c-.476-.123-.966.173-1.097.649l-5.197 18.898c-.012.042-.024.084-.036.126-.138.472.102.976.563 1.102l.017.005s98.371 27.279 98.383 27.282c.511.133 1.075-.139 1.215-.649 0 0 5.186-18.858 5.194-18.89.121-.518-.079-1.085-.594-1.223-.022-.006-.044-.012-.065-.018zm-94.941-17.424c2.008-2.717 5.906-3.307 8.622-1.299 2.599 2.008 3.189 5.905 1.181 8.622-2.007 2.716-5.787 3.189-8.503 1.181-2.717-2.008-3.308-5.788-1.3-8.504zm-153.351-.177-2.132-7.995-69.039-39.791c-.017-.01-.034-.02-.051-.03-12.216-7.161-20.335-17.71-23.705-31.611-.002-.012-.005-.024-.008-.036l-30-126.259-.004-.018c-1.859-7.9 1.056-16.826 7.096-23.209 5.98-6.318 14.782-10.003 23.917-8.193 10.251 2.031 22.386 11.666 29.214 37.427l.003.011 17.953 68.15c.002.01.005.02.008.03.302 1.165.66 2.285 1.073 3.364.227-.444.467-.887.721-1.328.006-.011.012-.022.018-.032 6.868-11.846 21.895-15.576 34.085-9.396.325.165.638.352.937.559 19.981 13.824 43.589 23.301 57.064 30.155.011.005.022.011.034.017 14.254 7.335 20.841 20.978 24.992 36.614l12.762 48.017 5.795-1.607.016-.005c8.886-2.443 18.259 2.811 20.925 11.696.018.06.035.119.051.179l5.197 18.897c.005.016.009.033.013.049 2.454 9.144-2.966 18.474-11.871 20.923l-98.385 27.283-.017.005c-8.958 2.463-18.37-2.893-20.849-11.843l-5.311-18.884c-.009-.031-.018-.062-.026-.094-2.453-9.144 2.966-18.474 11.871-20.923zm69.458-19.261-12.806-48.186c-2.935-11.053-6.735-21.259-16.803-26.447-13.813-7.024-37.858-16.809-58.388-30.899-4.504-2.054-9.984-.993-12.498 3.325-2.498 4.388-1.089 8.912 3.317 12.495 11.451 7.488 23.029 13.386 35.403 20.44 3.851 2.196 5.195 7.104 3 10.955s-7.104 5.195-10.955 3c-12.787-7.29-24.731-13.395-36.561-21.162l-.011-.007c-.112-.074-.223-.15-.331-.229l-.009-.007c-.269-.197-6.115-4.469-6.115-4.469-9.596-6.922-16.022-15.584-18.992-27.017l-17.949-68.135c-7.132-26.907-18.926-29.711-25.936-22.304-2.25 2.378-3.819 5.542-3.128 8.486 0 0 29.992 126.224 29.992 126.224 2.299 9.47 7.872 16.629 16.192 21.512l71.899 41.44c1.85 1.066 3.2 2.825 3.75 4.889l2.951 11.065zm25.552 9.583-98.371 27.279-.016.005c-.521.143-.77.718-.639 1.253l5.296 18.828c.004.015.008.03.012.045.132.48.629.777 1.109.646l98.371-27.279.017-.005c.525-.144.774-.729.634-1.268 0 0-5.15-18.727-5.152-18.735-.187-.535-.716-.918-1.261-.769zm-3.43 9.855c2.008 2.716 1.535 6.496-1.181 8.504-2.717 2.008-6.497 1.535-8.504-1.181-2.126-2.717-1.536-6.614 1.181-8.622 2.716-2.008 6.496-1.418 8.504 1.299zm-27.737-211.99-4.173 4.173c-3.122 3.122-8.192 3.122-11.314 0s-3.122-8.192 0-11.314l16.505-16.504c1.423-2.216 3.909-3.685 6.735-3.685h.724c2.826 0 5.312 1.469 6.735 3.685l16.505 16.504c3.122 3.122 3.122 8.192 0 11.314-1.588 1.588-3.681 2.369-5.764 2.341-2.083.028-4.176-.753-5.764-2.341l-4.189-4.189v91.072c0 4.415-3.585 8-8 8s-8-3.585-8-8zm53.948-34.808-4.174 4.173c-3.122 3.122-8.191 3.122-11.313 0s-3.122-8.192 0-11.314l16.504-16.504c1.423-2.216 3.91-3.685 6.736-3.685h.723c2.827 0 5.313 1.469 6.736 3.685l16.505 16.504c3.122 3.122 3.122 8.192 0 11.314-1.589 1.588-3.681 2.368-5.764 2.341-2.084.027-4.176-.753-5.764-2.341l-4.189-4.189v91.071c0 4.416-3.585 8-8 8-4.416 0-8-3.584-8-8zm53.931 34.808-4.173 4.173c-3.122 3.122-8.192 3.122-11.314 0s-3.122-8.192 0-11.314l16.505-16.504c1.423-2.216 3.909-3.685 6.736-3.685h.723c2.826 0 5.313 1.469 6.736 3.685l16.504 16.504c3.122 3.122 3.122 8.192 0 11.314-1.588 1.588-3.68 2.369-5.764 2.341-2.083.028-4.175-.753-5.764-2.341l-4.189-4.189v91.072c0 4.415-3.584 8-8 8-4.415 0-8-3.585-8-8zm-202.212-65.626c3.338-8.783 12.463-32.786 12.463-32.786 3.523-9.339 16.81-9.339 20.334 0l12.463 32.786c9.396.462 35.038 1.722 35.01 1.721 10.067.453 14.104 13.132 6.326 19.331l-27.36 22.002c2.469 9.082 9.195 33.824 9.192 33.814 2.679 9.606-8.024 17.439-16.391 12.012-.01-.006-.019-.012-.028-.018l-29.378-19.226-29.348 19.224c-.01.007-.02.013-.031.02-8.337 5.408-19.025-2.388-16.434-11.966l.003-.009s6.749-24.827 9.203-33.851c-7.321-5.887-27.356-21.998-27.334-21.98-7.804-6.221-3.767-18.9 6.265-19.351zm-20.624 17.096c8.61 6.924 19.309 15.527 19.307 15.525 3.473 2.732 4.882 7 3.753 11.292-.006.021-.011.042-.017.063l-6.515 23.965c9.245-6.056 20.735-13.583 20.724-13.575 3.732-2.479 8.249-2.483 11.983-.014l20.741 13.574-6.512-23.95c-.005-.021-.011-.042-.016-.063-1.13-4.294.281-8.564 3.749-11.288l19.31-15.529-24.81-1.219-.017-.001c-4.409-.226-8.027-2.826-9.606-6.998l-8.82-23.203-8.816 23.192c-1.583 4.183-5.201 6.783-9.61 7.009l-.017.001zm310.651 66.022c-12.885-7.578-32.226-21.073-45.781-36.862-9.955-11.595-16.702-24.499-16.934-37.224v-.001c-.35-19.331 10.591-33.219 25.454-38.282 12.522-4.265 28.267-2.279 42.528 9.124 14.259-11.389 30.006-13.377 42.531-9.116 14.872 5.06 25.82 18.941 25.471 38.274v.001c-.233 12.725-6.98 25.629-16.934 37.224-13.556 15.789-32.897 29.284-45.779 36.86-3.336 1.985-7.22 1.986-10.556.002zm5.277-15.493c11.611-7.109 27.532-18.529 38.918-31.791 7.323-8.53 12.905-17.732 13.076-27.093.206-11.404-5.853-19.852-14.626-22.836-9.422-3.206-21.32-.182-31.678 10.347-1.504 1.53-3.56 2.39-5.705 2.39-2.145-.001-4.2-.862-5.704-2.392-10.355-10.537-22.244-13.563-31.66-10.356-8.768 2.987-14.822 11.442-14.616 22.847.171 9.361 5.754 18.563 13.077 27.093 11.386 13.262 27.307 24.682 38.918 31.791zm-138.916-85.735c-37.446 0-68-30.554-68-68s30.554-68 68-68 68 30.554 68 68-30.554 68-68 68zm0-16c28.635 0 52-23.364 52-52 0-28.635-23.365-52-52-52-28.636 0-52 23.365-52 52 0 28.636 23.364 52 52 52zm-8.001-87.622v-1.467c0-4.415 3.584-8 8-8 4.415 0 8 3.585 8 8v1.388c6.967 1.995 13.259 6.781 16.626 14.791 1.711 4.071-.204 8.764-4.275 10.476-4.07 1.711-8.764-.205-10.475-4.275-2.547-6.06-9.38-7.175-14.255-5.255-2.481.976-4.612 2.872-4.473 5.786.106 2.149 1.624 3.279 3.282 4.09 2.131 1.042 4.601 1.607 6.917 1.989 11.377 1.861 23.645 7.318 25.297 20.845l.001.011c1.536 12.726-7.985 20.542-18.645 23.106v1.227c0 4.415-3.585 8-8 8-4.416 0-8-3.585-8-8v-1.346c-8.796-2.332-16.181-8.496-18.559-18.049-1.067-4.284 1.546-8.629 5.83-9.695 4.285-1.067 8.629 1.546 9.696 5.83 1.275 5.124 6.602 7.08 11.607 6.962 2.357-.056 4.923-.544 7.088-1.606 1.777-.871 3.374-2.205 3.099-4.506-.322-2.615-2.222-3.954-4.295-4.894-2.408-1.092-5.145-1.677-7.702-2.095l-.008-.002c-11.216-1.846-22.937-7.753-23.589-21.088v-.005c-.499-10.338 5.79-17.983 14.593-21.448.731-.288 1.479-.545 2.24-.77zm95.693 34.322c-3.925-2.024-5.467-6.853-3.443-10.777s6.853-5.466 10.777-3.443c22.282 11.493 42.232 26.884 58.944 45.269 2.97 3.267 2.729 8.331-.538 11.301s-8.331 2.728-11.301-.539c-15.436-16.98-33.86-31.196-54.439-41.811zm-231.37 42.696c-2.95 3.285-8.012 3.558-11.297.608-3.286-2.95-3.558-8.012-.608-11.298 17.833-19.862 39.42-36.285 63.64-48.152 3.965-1.942 8.761-.3 10.704 3.665 1.942 3.965.3 8.761-3.665 10.704-22.368 10.959-42.304 26.129-58.774 44.473z"/></g></svg>