<svg xmlns="http://www.w3.org/2000/svg" width="3188.88" height="1490.321" viewBox="0 0 3188.88 1490.321">
  <g id="bg-full" transform="translate(983.375 379.188)">
    <g id="bg-dark">
      <path id="bg-dark-2" data-name="bg-dark" d="M11949.41,5092.75s-86.656,131.525-132.445,171.688-195.055,159.5-167.625,269.216,73.507,124.868,99.623,141.259,199.054,40.589,199.054,40.589Z" transform="translate(-9814.41 -4693.626)" fill="none" stroke="#fdb81c" stroke-width="3"/>
      <path id="bg-dark-3" data-name="bg-dark" d="M11949.41,5092.75s-86.656,131.525-132.445,171.688-195.055,159.5-167.625,269.216,73.507,124.868,99.623,141.259,199.054,40.589,199.054,40.589Z" transform="matrix(0.996, 0.087, -0.087, 0.996, -9256.516, -5625.93)" fill="none" stroke="#000" stroke-width="3"/>
    </g>
    <g id="bg-walow" transform="translate(-654 -218.963)">
      <path id="Path_7146" data-name="Path 7146" d="M13500.595,4859.32s284.189,88.9,290.02,249.213-147.2,157.4-193.832,332.285,148.652,177.8,68.5,345.4-282.733,221.523-368.72,227.353-212.338,23.778-615.8-235.35c-163.228-332.284,70.734-811.055,70.734-811.055s364.646-156.547,487.518-155.875S13500.595,4859.32,13500.595,4859.32Z" transform="translate(-12950.776 -4918.978)" fill="none" stroke="#000" stroke-width="3"/>
    </g>
    <g id="bg-walow-2" data-name="bg-walow" transform="translate(-654 -270)">
      <path id="Path_7146-2" data-name="Path 7146" d="M13500.595,4859.32s284.189,88.9,290.02,249.213-147.2,157.4-193.832,332.285,148.652,177.8,68.5,345.4-282.733,221.523-368.72,227.353-212.338,23.778-615.8-235.35c-163.228-332.284,70.734-811.055,70.734-811.055s364.646-156.547,487.518-155.875S13500.595,4859.32,13500.595,4859.32Z" transform="translate(-12950.776 -4918.978)" fill="none" stroke="#fdb81c" stroke-width="3"/>
    </g>
  </g>
</svg>
