<svg id="OBJECT" viewBox="0 0 32 32" xmlns="http://www.w3.org/2000/svg"><path d="m8.5 7h6c.55 0 1-.45 1-1s-.45-1-1-1h-6c-.55 0-1 .45-1 1s.45 1 1 1z"/><path d="m31 14c0-4.07-3.06-7.44-7-7.93v-4.07c0-.55-.45-1-1-1h-18c-.55 0-1 .45-1 1v22h-2c-.55 0-1 .45-1 1v2.5c0 1.93 1.57 3.5 3.5 3.5h16c1.93 0 3.5-1.57 3.5-3.5v-5.57c3.94-.49 7-3.86 7-7.93zm-26.5 15c-.83 0-1.5-.67-1.5-1.5v-1.5h14v1.5c0 .54.12 1.04.34 1.5zm16 0c-.83 0-1.5-.67-1.5-1.5v-2.5c0-.55-.45-1-1-1h-12v-21h16v3.07c-2.25.28-4.21 1.5-5.48 3.26h-8.02c-.55 0-1 .45-1 1s.45 1 1 1h6.97c-.26.74-.42 1.52-.45 2.34h-6.52c-.55 0-1 .45-1 1s.45 1 1 1h6.68c.18.83.49 1.61.9 2.33h-7.58c-.55 0-1 .45-1 1s.45 1 1 1h9.23c1.17 1.03 2.65 1.73 4.27 1.93v5.57c0 .83-.67 1.5-1.5 1.5zm2.5-9c-1.63 0-3.1-.65-4.18-1.7-.97-.94-1.62-2.21-1.77-3.62-.02-.22-.04-.44-.04-.66 0-3.31 2.69-6 6-6s6 2.69 6 6-2.69 6-6 6z"/><path d="m22.3 12.2h2.8c.55 0 1-.45 1-1s-.45-1-1-1h-1.1v-.4c0-.55-.45-1-1-1s-1 .45-1 1v.43c-1.18.15-2.1 1.15-2.1 2.37 0 1.32 1.08 2.4 2.4 2.4h1.4c.22 0 .4.18.4.4s-.18.4-.4.4h-2.8c-.55 0-1 .45-1 1s.45 1 1 1h1.1v.4c0 .55.45 1 1 1s1-.45 1-1v-.43c1.18-.15 2.1-1.15 2.1-2.37 0-1.32-1.08-2.4-2.4-2.4h-1.4c-.22 0-.4-.18-.4-.4s.18-.4.4-.4z"/></svg>