<svg height="511pt" viewBox="-7 1 511 511.996" width="511pt" xmlns="http://www.w3.org/2000/svg"><path d="m39.988281 332.304688c-15.46875 11.320312-18.914062 33.101562-7.65625 48.648437 6.542969 9.039063 17.121094 14.433594 28.292969 14.433594 7.386719 0 14.457031-2.292969 20.453125-6.636719.082031-.058594.164063-.117188.246094-.179688l81.546875-62.933593c3.652344-2.671875 6.707031-5.976563 9.085937-9.824219l51.253907-75.960938 17.910156 12.617188c.652344.886719.761718 1.824219.761718 2.351562 0 .613282-.148437 1.800782-1.152343 2.804688l-51.917969 51.914062c-6.59375 6.59375-10.226562 15.359376-10.226562 24.6875 0 9.324219 3.632812 18.089844 10.226562 24.683594 6.589844 6.59375 15.359375 10.222656 24.683594 10.222656 9.324218 0 18.089844-3.628906 24.683594-10.222656l54.5-54.5c13.914062-13.914062 21.578124-32.445312 21.578124-52.171875 0-17.90625-6.332031-34.8125-17.90625-48.191406l56.4375-56.4375c2.761719-2.761719 5.207032-5.789063 7.328126-9.027344.339843 0 .683593.019531 1.023437.019531 15.945313 0 31.863281-2.890624 46.8125-8.632812 20.792969-7.984375 39.355469-21.308594 53.691406-38.523438l28.816407-34.613281c5.355468-6.4375 7.886718-14.574219 7.125-22.914062-.761719-8.339844-4.726563-15.882813-11.160157-21.238281-13.285156-11.0625-33.09375-9.25-44.152343 4.035156l-21.46875 25.789062c-.355469-10.773437-4.625-21.4375-12.828126-29.640625-17.148437-17.152343-45.054687-17.152343-62.207031 0l-7.140625 7.140625c-8.304687 8.308594-12.882812 19.355469-12.882812 31.101563 0 .660156.019531 1.316406.050781 1.96875-3.871094-.898438-7.8125-1.378907-11.765625-1.449219-.335938-.035156-.675781-.050781-1.023438-.050781h-47.757812c-34.398438 0-69.035156 7.730469-100.167969 22.355469-41.570312 19.527343-87.796875 29.839843-133.734375 29.839843-.257812.003907-.519531.019531-.777344 0-2.882812 0-5.628906 1.246094-7.527343 3.417969-1.90625 2.175781-2.773438 5.070312-2.382813 7.9375l3.441406 25.171875c7.746094 56.664063 42.683594 105.109375 93.757813 130.386719l-1.738281 2.683594zm115.269531-27.496094c-.089843.128906-.175781.261718-.257812.394531-1.035156 1.703125-2.378906 3.160156-3.992188 4.332031-.082031.058594-.164062.121094-.246093.179688l-81.523438 62.914062c-2.539062 1.804688-5.511719 2.757813-8.613281 2.757813-4.777344 0-9.300781-2.304688-12.09375-6.167969-4.820312-6.65625-3.328125-15.996094 3.332031-20.816406.085938-.0625.171875-.125.253907-.191406l77.597656-60.074219c.890625-.6875 1.65625-1.523438 2.269531-2.472657l51.8125-80.019531c3.515625 6.65625 8.566406 12.476563 14.886719 16.925781l8.175781 5.761719zm123.277344-14.542969-54.496094 54.5c-2.816406 2.8125-6.5625 4.363281-10.542968 4.363281-3.980469 0-7.726563-1.550781-10.542969-4.363281-2.8125-2.816406-4.363281-6.5625-4.363281-10.542969 0-3.980468 1.550781-7.726562 4.363281-10.539062l51.917969-51.917969c4.523437-4.523437 7.011718-10.542969 7.011718-16.949219s-2.488281-12.425781-7.011718-16.945312c-.40625-.40625-.84375-.773438-1.3125-1.105469l-43.359375-30.546875c-6.84375-4.820312-11.179688-12.367188-11.898438-20.707031-.714843-8.339844 2.265625-16.515625 8.1875-22.433594l10.421875-10.425781 58.34375 58.34375c.230469.230468.472656.445312.722656.648437l2.558594 2.5625c10.136719 10.136719 15.722656 23.644531 15.722656 38.027344 0 14.386719-5.582031 27.890625-15.722656 38.03125zm3.828125-100.519531-44.183593-44.183594c-.230469-.230469-.472657-.445312-.722657-.652344l-6.40625-6.402344 56.316407-56.316406c9.488281-9.488281 22.96875-12.597656 35.082031-9.351562-1.859375.574218-3.683594 1.324218-5.445313 2.253906-7.40625 3.910156-12.84375 10.46875-15.316406 18.472656-2.46875 8-1.675781 16.484375 2.234375 23.890625 3.910156 7.402344 10.46875 12.84375 18.46875 15.3125 4.464844 1.378907 8.996094 2.5 13.558594 3.390625zm146.464844-125.621094 28.816406-34.617188c4.003907-4.8125 11.175781-5.46875 15.984375-1.460937 2.328125 1.9375 3.761719 4.671875 4.039063 7.691406.277343 3.015625-.640625 5.960938-2.578125 8.292969l-28.820313 34.613281c-12.148437 14.597657-27.878906 25.886719-45.488281 32.652344-23.03125 8.847656-48.773438 9.683594-72.488281 2.359375-2.894531-.894531-5.269531-2.863281-6.683594-5.542969-1.417969-2.679687-1.703125-5.75-.808594-8.648437.894531-2.894532 2.863281-5.269532 5.542969-6.6875 1.65625-.875 3.460938-1.316406 5.285156-1.316406 1.125 0 2.257813.167968 3.363282.511718 5.402343 1.667969 10.871093 2.792969 16.34375 3.40625.878906.207032 1.785156.296875 2.695312.257813 7.757812.628906 15.5.222656 23.03125-1.164063.953125-.160156 1.894531-.347656 2.828125-.566406.054687-.011719.109375-.023438.160156-.035156.199219-.046875.394531-.089844.589844-.140625 18.46875-4.207031 35.484375-14.351563 48.1875-29.605469zm-83.082031-13.023438c0-6.40625 2.496094-12.429687 7.027344-16.960937l7.140624-7.140625c4.675782-4.675781 10.816407-7.011719 16.960938-7.011719 6.140625 0 12.28125 2.335938 16.957031 7.011719 4.53125 4.53125 7.027344 10.554688 7.027344 16.960938s-2.496094 12.429687-7.027344 16.957031l-7.140625 7.144531c-3.375 3.375-7.519531 5.511719-11.875 6.453125-.296875.058594-.59375.121094-.890625.179687-7.355469 1.296876-15.191406-.84375-20.917969-6.417968-.074218-.078125-.144531-.15625-.222656-.230469-.101562-.105469-.210937-.199219-.316406-.300781-4.332031-4.492188-6.722656-10.382813-6.722656-16.644532zm-301.828125 86.484376-1.914063-13.992188c45.324219-1.472656 90.582032-12.304688 131.582032-31.566406 28.492187-13.382813 60.1875-20.457032 91.664062-20.457032h4.453125l-59.863281 59.863282c-.015625.015625-.027344.03125-.042969.046875l-17.449219 17.453125c-7.628906 7.628906-12.394531 17.457031-13.75 27.941406l-49.789062 76.894531c-46.242188-22.03125-77.945313-65.367187-84.890625-116.183593zm0 0"/><path d="m106.847656 391.503906-76.683594 76.683594c-3.90625 3.90625-3.90625 10.238281 0 14.144531 1.953126 1.953125 4.511719 2.929688 7.070313 2.929688s5.121094-.976563 7.070313-2.929688l76.683593-76.683593c3.90625-3.90625 3.90625-10.238282 0-14.144532-3.902343-3.902344-10.234375-3.902344-14.140625 0zm0 0"/><path d="m10.5 491.996094c-2.632812 0-5.210938 1.066406-7.070312 2.929687-1.863282 1.859375-2.933594 4.441407-2.933594 7.070313s1.070312 5.210937 2.933594 7.070312c1.859374 1.859375 4.4375 2.929688 7.070312 2.929688 2.628906 0 5.207031-1.070313 7.070312-2.929688 1.859376-1.859375 2.929688-4.441406 2.929688-7.070312s-1.070312-5.210938-2.929688-7.070313c-1.863281-1.859375-4.441406-2.929687-7.070312-2.929687zm0 0"/><path d="m191.4375 391.503906c-3.902344-3.902344-10.234375-3.902344-14.140625 0l-49.667969 49.667969c-3.90625 3.90625-3.90625 10.238281 0 14.144531 1.953125 1.953125 4.511719 2.929688 7.070313 2.929688 2.558593 0 5.117187-.976563 7.070312-2.929688l49.667969-49.667968c3.90625-3.90625 3.90625-10.238282 0-14.144532zm0 0"/><path d="m485.476562 217.105469-90.109374 20.710937c-3.542969.8125-6.367188 3.488282-7.371094 6.984375-1.003906 3.496094-.03125 7.257813 2.539062 9.832031l6.785156 6.78125-233.433593 233.4375c-3.90625 3.90625-3.90625 10.238282 0 14.144532 1.949219 1.949218 4.511719 2.929687 7.070312 2.929687 2.558594 0 5.121094-.980469 7.070313-2.929687l240.507812-240.507813c3.90625-3.90625 3.90625-10.238281 0-14.144531l-1.082031-1.082031 56.941406-13.089844-13.085937 56.941406-1.082032-1.082031c-3.90625-3.902344-10.238281-3.902344-14.144531 0l-172.917969 172.921875c-3.90625 3.902344-3.90625 10.234375 0 14.140625 3.902344 3.90625 10.234376 3.90625 14.140626 0l165.847656-165.847656 6.785156 6.785156c2.570312 2.570312 6.332031 3.546875 9.832031 2.539062 3.496094-1.003906 6.171875-3.824218 6.984375-7.371093l20.710938-90.109375c.773437-3.355469-.238282-6.875-2.675782-9.3125-2.433593-2.433594-5.953124-3.445313-9.3125-2.671875zm0 0"/><path d="m254.339844 491.925781c-2.640625 0-5.210938 1.058594-7.082032 2.917969-1.859374 1.871094-2.917968 4.441406-2.917968 7.082031 0 2.628907 1.058594 5.199219 2.917968 7.070313 1.871094 1.859375 4.453126 2.929687 7.082032 2.929687s5.199218-1.070312 7.070312-2.929687c1.859375-1.871094 2.929688-4.441406 2.929688-7.070313 0-2.640625-1.070313-5.210937-2.929688-7.082031-1.859375-1.859375-4.441406-2.917969-7.070312-2.917969zm0 0"/></svg>