<?xml version="1.0"?>
<svg xmlns="http://www.w3.org/2000/svg" viewBox="0 0 512 512"><g id="Layer_2" data-name="Layer 2"><g id="Layer_1_copy_15" data-name="Layer 1 copy 15"><g id="_146" data-name="146"><path id="background" d="M256,10a246.06,246.06,0,0,1,95.75,472.67A246.06,246.06,0,0,1,160.25,29.33,244.37,244.37,0,0,1,256,10m0-10C114.62,0,0,114.62,0,256S114.62,512,256,512,512,397.38,512,256,397.38,0,256,0Z"/><path d="M343.92,245.84a89.36,89.36,0,0,0-36.07,7.55,136.29,136.29,0,0,0-12.11-12.6c-15-13.66-31.9-23-50-27.81a66.63,66.63,0,1,0-56.37,0c-18.06,4.76-35,14.15-50,27.81-21.66,19.77-37.63,47.72-45,78.69a17.88,17.88,0,0,0,3.23,15.07A151.57,151.57,0,0,0,268.39,385a90.07,90.07,0,1,0,75.53-139.12ZM161,152.62a56.63,56.63,0,1,1,56.62,56.62A56.68,56.68,0,0,1,161,152.62Zm56.62,231a140.24,140.24,0,0,1-111.95-55.19,7.94,7.94,0,0,1-1.43-6.67c14.3-60.33,60.92-102.46,113.38-102.46,26.23,0,51,10.53,71,28.61a124.53,124.53,0,0,1,10,10.14,90,90,0,0,0-35.28,118.05A141.83,141.83,0,0,1,217.59,383.65ZM343.92,416A80.07,80.07,0,0,1,305,265.93a78.1,78.1,0,0,1,9.23-4.4A80.08,80.08,0,1,1,343.92,416Z"/><path d="M390.49,342.93a5.16,5.16,0,0,0-5.15,5.16v17.14H302.51V348.09a5.16,5.16,0,0,0-10.32,0v22.3a5.16,5.16,0,0,0,5.16,5.15h93.14a5.16,5.16,0,0,0,5.16-5.15v-22.3A5.16,5.16,0,0,0,390.49,342.93Z"/><path d="M347.33,282.34a5.14,5.14,0,0,0-7.28,0L320,302.41a5.15,5.15,0,1,0,7.28,7.29l11.54-11.51v51.48a5.16,5.16,0,1,0,10.31,0v-51l11.53,11.52a5.16,5.16,0,0,0,7.29-7.3Z"/></g></g></g></svg>
