<?xml version="1.0" encoding="UTF-8" standalone="no"?>
<!-- Created with Inkscape (http://www.inkscape.org/) -->

<svg
   version="1.1"
   id="svg3390"
   xml:space="preserve"
   width="682.66669"
   height="682.66669"
   viewBox="0 0 682.66669 682.66669"
   xmlns="http://www.w3.org/2000/svg"
   xmlns:svg="http://www.w3.org/2000/svg"><defs
     id="defs3394"><clipPath
       clipPathUnits="userSpaceOnUse"
       id="clipPath3404"><path
         d="M 0,512 H 512 V 0 H 0 Z"
         id="path3402" /></clipPath></defs><g
     id="g3396"
     transform="matrix(1.3333333,0,0,-1.3333333,0,682.66667)"><g
       id="g3398"><g
         id="g3400"
         clip-path="url(#clipPath3404)"><g
           id="g3406"
           transform="translate(166,285)"><path
             d="m 0,0 c 0,-16.568 -13.432,-30 -30,-30 -16.568,0 -30,13.432 -30,30 0,16.568 13.432,30 30,30 C -13.432,30 0,16.568 0,0 Z"
             style="fill:none;stroke:#000000;stroke-width:30;stroke-linecap:butt;stroke-linejoin:miter;stroke-miterlimit:10;stroke-dasharray:none;stroke-opacity:1"
             id="path3408" /></g><g
           id="g3410"
           transform="translate(196,135)"><path
             d="m 0,0 h -120 v 30 c 0,33.137 26.863,60 60,60 33.137,0 60,-26.863 60,-60 z"
             style="fill:none;stroke:#000000;stroke-width:30;stroke-linecap:butt;stroke-linejoin:miter;stroke-miterlimit:10;stroke-dasharray:none;stroke-opacity:1"
             id="path3412" /></g><g
           id="g3414"
           transform="translate(226,285)"><path
             d="M 0,0 30,-30 90,30"
             style="fill:none;stroke:#000000;stroke-width:30;stroke-linecap:butt;stroke-linejoin:miter;stroke-miterlimit:10;stroke-dasharray:none;stroke-opacity:1"
             id="path3416" /></g><g
           id="g3418"
           transform="translate(361,315)"><path
             d="M 0,0 H 91"
             style="fill:none;stroke:#000000;stroke-width:30;stroke-linecap:butt;stroke-linejoin:miter;stroke-miterlimit:10;stroke-dasharray:none;stroke-opacity:1"
             id="path3420" /></g><g
           id="g3422"
           transform="translate(361,255)"><path
             d="M 0,0 H 91"
             style="fill:none;stroke:#000000;stroke-width:30;stroke-linecap:butt;stroke-linejoin:miter;stroke-miterlimit:10;stroke-dasharray:none;stroke-opacity:1"
             id="path3424" /></g><g
           id="g3426"
           transform="translate(301,195)"><path
             d="M 0,0 H 151"
             style="fill:none;stroke:#000000;stroke-width:30;stroke-linecap:butt;stroke-linejoin:miter;stroke-miterlimit:10;stroke-dasharray:none;stroke-opacity:1"
             id="path3428" /></g><g
           id="g3430"
           transform="translate(211,75)"><path
             d="M 0,0 H -196 V 422 H 286 V 0 H 102.426"
             style="fill:none;stroke:#000000;stroke-width:30;stroke-linecap:butt;stroke-linejoin:miter;stroke-miterlimit:10;stroke-dasharray:none;stroke-opacity:1"
             id="path3432" /></g><g
           id="g3434"
           transform="translate(61,436)"><path
             d="M 0,0 H 30"
             style="fill:none;stroke:#000000;stroke-width:30;stroke-linecap:butt;stroke-linejoin:miter;stroke-miterlimit:10;stroke-dasharray:none;stroke-opacity:1"
             id="path3436" /></g><g
           id="g3438"
           transform="translate(121,436)"><path
             d="M 0,0 H 30"
             style="fill:none;stroke:#000000;stroke-width:30;stroke-linecap:butt;stroke-linejoin:miter;stroke-miterlimit:10;stroke-dasharray:none;stroke-opacity:1"
             id="path3440" /></g><g
           id="g3442"
           transform="translate(181,436)"><path
             d="M 0,0 H 30"
             style="fill:none;stroke:#000000;stroke-width:30;stroke-linecap:butt;stroke-linejoin:miter;stroke-miterlimit:10;stroke-dasharray:none;stroke-opacity:1"
             id="path3444" /></g><g
           id="g3446"
           transform="translate(241,436)"><path
             d="M 0,0 H 211"
             style="fill:none;stroke:#000000;stroke-width:30;stroke-linecap:butt;stroke-linejoin:miter;stroke-miterlimit:10;stroke-dasharray:none;stroke-opacity:1"
             id="path3448" /></g><g
           id="g3450"
           transform="translate(15,376)"><path
             d="M 0,0 H 482"
             style="fill:none;stroke:#000000;stroke-width:30;stroke-linecap:butt;stroke-linejoin:miter;stroke-miterlimit:10;stroke-dasharray:none;stroke-opacity:1"
             id="path3452" /></g><g
           id="g3454"
           transform="translate(196,150)"><path
             d="M 0,0 21.213,-106.066 42.426,-84.853 86.574,-129 129,-86.574 84.853,-42.426 106.066,-21.213 0,0"
             style="fill:none;stroke:#000000;stroke-width:30;stroke-linecap:butt;stroke-linejoin:miter;stroke-miterlimit:10;stroke-dasharray:none;stroke-opacity:1"
             id="path3456" /></g></g></g></g></svg>
