<?xml version="1.0" encoding="iso-8859-1"?>
<!-- Generator: Adobe Illustrator 19.0.0, SVG Export Plug-In . SVG Version: 6.00 Build 0)  -->
<svg version="1.1" id="Capa_1" xmlns="http://www.w3.org/2000/svg" xmlns:xlink="http://www.w3.org/1999/xlink" x="0px" y="0px"
	 viewBox="0 0 512 512" style="enable-background:new 0 0 512 512;" xml:space="preserve">
<g>
	<g>
		<path d="M206.499,26.076c-5.797-5.797-15.2-5.799-20.997-0.002C130.481,81.095,143.724,66.852,81.3,129.276h48.399L185.5,73.777
			c5.7-6,15.298-6,20.999,0l55.801,55.499h47.399C247.317,66.894,261.496,81.073,206.499,26.076z"/>
	</g>
</g>
<g>
	<g>
		<path d="M296.499,26.067c-5.799-5.793-15.198-5.792-20.995,0.005L262.3,39.276h-0.09l90,90h0.091H399.7h0.09L296.499,26.067z"/>
	</g>
</g>
<g>
	<g>
		<polygon points="196,105.577 172.301,129.276 219.699,129.276 		"/>
	</g>
</g>
<g>
	<g>
		<path d="M436,39.276h-83.789l90,90H451v-75C451,45.992,444.284,39.276,436,39.276z"/>
	</g>
</g>
<g>
	<g>
		<path d="M75,39.277c-24.853,0-45,20.147-45,45c0,14.672,7.128,27.579,17.996,35.793l81.793-80.793H75z"/>
	</g>
</g>
<g>
	<g>
		<path d="M361,279.276c-16.538,0-30,13.462-30,30c0,16.538,13.462,30,30,30h136c8.284,0,15-6.716,15-15v-45H361z"/>
	</g>
</g>
<g>
	<g>
		<path d="M361,249.276v-30H0v181h361v-30c-33.091,0-60-27.909-60-61S327.909,249.276,361,249.276z"/>
	</g>
</g>
<g>
	<g>
		<path d="M391,370.276v45c0,8.291-6.709,15-15,15H0v15c0,24.815,20.186,45,45,45h361c24.814,0,45-20.186,45-45v-75H391z"/>
	</g>
</g>
<g>
	<g>
		<path d="M60,159.276c-32.999,0-60-27.001-60-60v90h376c8.401,0,15,6.6,15,15v45h60v-90H60z"/>
	</g>
</g>
<g>
	<g>
		<path d="M482,189.276v60c16.569,0,30-13.43,30-30C512,202.707,498.569,189.276,482,189.276z"/>
	</g>
</g>
<g>
</g>
<g>
</g>
<g>
</g>
<g>
</g>
<g>
</g>
<g>
</g>
<g>
</g>
<g>
</g>
<g>
</g>
<g>
</g>
<g>
</g>
<g>
</g>
<g>
</g>
<g>
</g>
<g>
</g>
</svg>
