<?xml version="1.0" standalone="no"?><svg xmlns="http://www.w3.org/2000/svg" viewBox="0 0 1440 320"><path fill="#E8E7E2" fill-opacity="1" d="M0,128L24,106.7C48,85,96,43,144,26.7C192,11,240,21,288,26.7C336,32,384,32,432,32C480,32,528,32,576,32C624,32,672,32,720,64C768,96,816,160,864,165.3C912,171,960,117,1008,106.7C1056,96,1104,128,1152,138.7C1200,149,1248,139,1296,160C1344,181,1392,235,1416,261.3L1440,288L1440,320L1416,320C1392,320,1344,320,1296,320C1248,320,1200,320,1152,320C1104,320,1056,320,1008,320C960,320,912,320,864,320C816,320,768,320,720,320C672,320,624,320,576,320C528,320,480,320,432,320C384,320,336,320,288,320C240,320,192,320,144,320C96,320,48,320,24,320L0,320Z"></path></svg>