<?xml version="1.0" standalone="no"?><svg xmlns="http://www.w3.org/2000/svg" viewBox="0 0 1440 320"><path fill="#e9eaea" fill-opacity="1" d="M0,288L30,256C60,224,120,160,180,117.3C240,75,300,53,360,48C420,43,480,53,540,69.3C600,85,660,107,720,138.7C780,171,840,213,900,208C960,203,1020,149,1080,144C1140,139,1200,181,1260,165.3C1320,149,1380,75,1410,37.3L1440,0L1440,320L1410,320C1380,320,1320,320,1260,320C1200,320,1140,320,1080,320C1020,320,960,320,900,320C840,320,780,320,720,320C660,320,600,320,540,320C480,320,420,320,360,320C300,320,240,320,180,320C120,320,60,320,30,320L0,320Z"></path></svg>